<?xml version="1.0" encoding="utf-8" ?>
<svg baseProfile="tiny" height="100%" version="1.2" width="100%" xmlns="http://www.w3.org/2000/svg" xmlns:ev="http://www.w3.org/2001/xml-events" xmlns:xlink="http://www.w3.org/1999/xlink"><defs /><path d="M 15,14 L 14,15 L 12,15 L 11,16 L 9,16 L 8,17 L 7,17 L 6,18 L 4,18 L 3,19 L 1,19 L 1,22 L 2,23 L 4,23 L 5,22 L 6,22 L 7,21 L 9,21 L 10,20 L 12,20 L 13,19 L 15,19 L 16,18 L 19,18 L 20,19 L 22,19 L 23,20 L 25,20 L 26,21 L 28,21 L 29,22 L 30,22 L 31,23 L 33,23 L 34,22 L 34,19 L 32,19 L 31,18 L 29,18 L 28,17 L 27,17 L 26,16 L 24,16 L 23,15 L 21,15 L 20,14 Z" fill="black" stroke="none" /></svg>